<?xml version="1.0" encoding="UTF-8" standalone="no"?>
<!-- Created with Inkscape (http://www.inkscape.org/) -->

<svg
   xmlns:dc="http://purl.org/dc/elements/1.1/"
   xmlns:cc="http://creativecommons.org/ns#"
   xmlns:rdf="http://www.w3.org/1999/02/22-rdf-syntax-ns#"
   xmlns:svg="http://www.w3.org/2000/svg"
   xmlns="http://www.w3.org/2000/svg"
   xmlns:sodipodi="http://sodipodi.sourceforge.net/DTD/sodipodi-0.dtd"
   xmlns:inkscape="http://www.inkscape.org/namespaces/inkscape"
   width="64px"
   height="64px"
   id="svg9849"
   version="1.1"
   inkscape:version="0.48.2 r9819"
   sodipodi:docname="adsr.svg">
  <defs
     id="defs9851">
    <inkscape:path-effect
       effect="spiro"
       id="path-effect9861"
       is_visible="true" />
  </defs>
  <sodipodi:namedview
     id="base"
     pagecolor="#ffffff"
     bordercolor="#666666"
     borderopacity="1.0"
     inkscape:pageopacity="0.0"
     inkscape:pageshadow="2"
     inkscape:zoom="8.828125"
     inkscape:cx="32"
     inkscape:cy="22.938053"
     inkscape:current-layer="layer1"
     showgrid="true"
     inkscape:document-units="px"
     inkscape:grid-bbox="true"
     inkscape:window-width="1024"
     inkscape:window-height="744"
     inkscape:window-x="0"
     inkscape:window-y="24"
     inkscape:window-maximized="1">
    <inkscape:grid
       type="xygrid"
       id="grid9857" />
  </sodipodi:namedview>
  <metadata
     id="metadata9854">
    <rdf:RDF>
      <cc:Work
         rdf:about="">
        <dc:format>image/svg+xml</dc:format>
        <dc:type
           rdf:resource="http://purl.org/dc/dcmitype/StillImage" />
        <dc:title></dc:title>
      </cc:Work>
    </rdf:RDF>
  </metadata>
  <g
     id="layer1"
     inkscape:label="Layer 1"
     inkscape:groupmode="layer">
    <path
       style="fill:#81de89;fill-opacity:1;stroke:#000000;stroke-width:1px;stroke-linecap:butt;stroke-linejoin:miter;stroke-opacity:1"
       d="M 2,62 C 4.9057972,48.318753 9.9890343,35.102336 17,23 c 0.292348,-0.504651 0.59511,-1.013181 1.016235,-1.416657 0.421125,-0.403477 0.971348,-0.68977 1.553842,-0.718763 0.582494,-0.02899 1.166775,0.211473 1.580046,0.622991 C 21.563394,21.899088 21.79522,22.453919 22,23 l 3,8 c 0.13685,0.364934 0.265409,0.732966 0.405311,1.096742 0.139901,0.363775 0.299082,0.72462 0.532775,1.036538 0.233693,0.311918 0.547787,0.566716 0.911108,0.707796 C 27.212514,33.982155 27.61025,34 28,34 c 2.666667,0 5.333333,0 8,0 3.333333,0 6.666667,0 10,0 0.269433,0 0.54248,0.0062 0.801175,0.0815 0.258695,0.07531 0.497944,0.219203 0.679914,0.417901 0.18197,0.198698 0.304598,0.446611 0.379873,0.705314 C 47.936236,35.463419 47.96699,35.732597 48,36 49.343011,46.879119 56.289884,56.913492 66,62 L 2,62"
       id="path9859"
       inkscape:path-effect="#path-effect9861"
       inkscape:original-d="M 2,62 C 6.6666667,48.666667 12.333333,36.333333 17,23 c 0.440467,-1.258478 4.531835,-1.248439 5,0 l 3,8 c 0.496564,1.324169 1.585786,3 3,3 l 8,0 10,0 c 0.942809,0 1.395898,1.276157 2,2 6.754071,8.092814 18,26 18,26 -21.333333,0 -43.897585,7.385511 -64,0 z"
       inkscape:connector-curvature="0"
       sodipodi:nodetypes="csssscsacc" />
  </g>
</svg>
