<?xml version="1.0" encoding="UTF-8" standalone="no"?>
<!-- Created with Inkscape (http://www.inkscape.org/) -->

<svg
   xmlns:dc="http://purl.org/dc/elements/1.1/"
   xmlns:cc="http://creativecommons.org/ns#"
   xmlns:rdf="http://www.w3.org/1999/02/22-rdf-syntax-ns#"
   xmlns:svg="http://www.w3.org/2000/svg"
   xmlns="http://www.w3.org/2000/svg"
   xmlns:sodipodi="http://sodipodi.sourceforge.net/DTD/sodipodi-0.dtd"
   xmlns:inkscape="http://www.inkscape.org/namespaces/inkscape"
   width="64px"
   height="64px"
   id="svg9306"
   version="1.1"
   inkscape:version="0.48.2 r9819"
   sodipodi:docname="graph.svg">
  <defs
     id="defs9308">
    <inkscape:path-effect
       effect="spiro"
       id="path-effect9320"
       is_visible="true" />
  </defs>
  <sodipodi:namedview
     id="base"
     pagecolor="#ffffff"
     bordercolor="#666666"
     borderopacity="1.0"
     inkscape:pageopacity="0.0"
     inkscape:pageshadow="2"
     inkscape:zoom="8.484375"
     inkscape:cx="32"
     inkscape:cy="32"
     inkscape:current-layer="layer1"
     showgrid="true"
     inkscape:document-units="px"
     inkscape:grid-bbox="true"
     inkscape:window-width="1024"
     inkscape:window-height="744"
     inkscape:window-x="0"
     inkscape:window-y="24"
     inkscape:window-maximized="1">
    <inkscape:grid
       type="xygrid"
       id="grid9314" />
  </sodipodi:namedview>
  <metadata
     id="metadata9311">
    <rdf:RDF>
      <cc:Work
         rdf:about="">
        <dc:format>image/svg+xml</dc:format>
        <dc:type
           rdf:resource="http://purl.org/dc/dcmitype/StillImage" />
        <dc:title />
      </cc:Work>
    </rdf:RDF>
  </metadata>
  <g
     id="layer1"
     inkscape:label="Layer 1"
     inkscape:groupmode="layer">
    <path
       style="fill:none;stroke:#000000;stroke-width:1px;stroke-linecap:butt;stroke-linejoin:miter;stroke-opacity:0.627451"
       d="M 8,0 8,56"
       id="path5251"
       inkscape:connector-curvature="0"
       sodipodi:nodetypes="cc" />
    <path
       style="fill:none;stroke:#000000;stroke-width:1px;stroke-linecap:butt;stroke-linejoin:miter;stroke-opacity:0.627451"
       d="M 16,56 16,0"
       id="path5253"
       inkscape:connector-curvature="0"
       sodipodi:nodetypes="cc" />
    <path
       style="fill:none;stroke:#000000;stroke-width:1px;stroke-linecap:butt;stroke-linejoin:miter;stroke-opacity:0.627451"
       d="m 24,0 0,56"
       id="path5255"
       inkscape:connector-curvature="0"
       sodipodi:nodetypes="cc" />
    <path
       style="fill:none;stroke:#000000;stroke-width:1px;stroke-linecap:butt;stroke-linejoin:miter;stroke-opacity:0.627451"
       d="M 32,56 32,0"
       id="path5257"
       inkscape:connector-curvature="0"
       sodipodi:nodetypes="cc" />
    <path
       style="fill:none;stroke:#000000;stroke-width:1px;stroke-linecap:butt;stroke-linejoin:miter;stroke-opacity:0.627451"
       d="M 0,8 64,8"
       id="path5259"
       inkscape:connector-curvature="0"
       sodipodi:nodetypes="cc" />
    <path
       style="fill:none;stroke:#000000;stroke-width:1px;stroke-linecap:butt;stroke-linejoin:miter;stroke-opacity:0.627451"
       d="m 40,0 0,56"
       id="path5261"
       inkscape:connector-curvature="0"
       sodipodi:nodetypes="cc" />
    <path
       style="fill:none;stroke:#000000;stroke-width:1px;stroke-linecap:butt;stroke-linejoin:miter;stroke-opacity:0.627451"
       d="M 48,56 48,0"
       id="path5263"
       inkscape:connector-curvature="0"
       sodipodi:nodetypes="cc" />
    <path
       style="fill:none;stroke:#000000;stroke-width:1px;stroke-linecap:butt;stroke-linejoin:miter;stroke-opacity:0.627451"
       d="m 56,0 0,56"
       id="path5265"
       inkscape:connector-curvature="0"
       sodipodi:nodetypes="cc" />
    <path
       style="fill:none;stroke:#000000;stroke-width:1px;stroke-linecap:butt;stroke-linejoin:miter;stroke-opacity:0.627451"
       d="M 64,16 0,16"
       id="path5267"
       inkscape:connector-curvature="0"
       sodipodi:nodetypes="cc" />
    <path
       style="fill:none;stroke:#000000;stroke-width:1px;stroke-linecap:butt;stroke-linejoin:miter;stroke-opacity:0.627451"
       d="m 0,24 64,0"
       id="path5269"
       inkscape:connector-curvature="0" />
    <path
       style="fill:none;stroke:#000000;stroke-width:1px;stroke-linecap:butt;stroke-linejoin:miter;stroke-opacity:0.627451"
       d="M 64,32 0,32"
       id="path5271"
       inkscape:connector-curvature="0" />
    <path
       style="fill:none;stroke:#000000;stroke-width:1px;stroke-linecap:butt;stroke-linejoin:miter;stroke-opacity:0.627451"
       d="m 0,39 64,1"
       id="path5273"
       inkscape:connector-curvature="0" />
    <path
       style="fill:#233858;fill-opacity:1;stroke:#000000;stroke-width:1px;stroke-linecap:butt;stroke-linejoin:miter;stroke-opacity:1"
       d="M 0,40 C 1.2426992,39.227259 2.529099,38.524804 3.851003,37.89711 5.6369376,37.049076 7.5234889,36.314777 9,35 10.457353,33.702282 11.410773,31.928019 12.795522,30.553093 13.969052,29.387887 15.435017,28.534515 17,28 17.809557,27.723498 18.652976,27.529138 19.508045,27.502803 20.363114,27.476468 21.232024,27.623106 22,28 c 0.964563,0.473372 1.718833,1.276688 2.465471,2.049342 C 25.212109,30.821996 26.002598,31.600436 27,32 c 0.827562,0.331525 1.757963,0.376831 2.62813,0.182985 C 30.498298,31.98914 31.308683,31.562893 32,31 c 1.299927,-1.058442 2.154723,-2.552375 3,-4 0.606779,-1.039173 1.227229,-2.077565 2,-3 0.393944,-0.470239 0.828671,-0.910628 1.328503,-1.266274 C 38.828336,22.378079 39.396227,22.108512 40,22 c 0.689278,-0.123879 1.404124,-0.03453 2.075004,0.166397 C 42.745884,22.367321 43.37869,22.676852 44,23 c 1.069954,0.556492 2.128467,1.166385 3,2 0.51289,0.490575 0.952866,1.050963 1.420802,1.584589 C 48.888739,27.118214 49.393053,27.63212 50,28 c 1.184606,0.718009 2.627698,0.811283 4,1 1.684355,0.231631 3.3399,0.632887 5,1 1.659692,0.367022 3.326814,0.700447 5,1 L 64,64 0,64 0,40"
       id="path9318"
       inkscape:path-effect="#path-effect9320"
       inkscape:original-d="M 0,40 C 0,40 1.734002,39.098073 3.851003,37.89711 5.968004,36.696146 7.468004,36.196146 9,35 10.114691,34.129676 11.921027,31.7669 12.795522,30.553093 13.670018,29.339286 15.612672,28.274448 17,28 c 2.125476,-0.420473 3.252239,-0.792061 5,0 1.747762,0.79206 3.116522,3.747768 5,4 1.65192,0.221222 2.890893,-0.672548 5,-1 1.187622,-0.184386 2.472589,-2.789845 3,-4 0.527411,-1.210156 1.297266,-2.025008 2,-3 1.11112,-1.541597 1.630178,-1.584888 3,-2 1.369821,-0.415112 2.590406,0.797956 4,1 1.649805,0.236475 2.070558,1.23804 3,2 1.093671,0.896596 1.821546,2.087054 3,3 0.943223,0.730713 2.614354,1.730759 4,1 1.385646,-0.730759 3.485805,0.807679 5,1 3.028388,0.384643 5,1 5,1 l 0,33 -64,0 z"
       inkscape:connector-curvature="0"
       sodipodi:nodetypes="csssssssssssassscccc" />
  </g>
</svg>
